<?xml version="1.0" encoding="UTF-8"?>
<!DOCTYPE svg PUBLIC "-//W3C//DTD SVG 1.1//EN" "http://www.w3.org/Graphics/SVG/1.1/DTD/svg11.dtd">

            <svg xmlns="http://www.w3.org/2000/svg" width="5000" height="500" viewBox="0 0 39000 10">
                <g transform="translate(200, 100)">
                    <text x="2200"
                        y="-1000"
                        text-anchor="middle"
                        style="font-size:200px"
                        font-family="Georgia">Timeline of "Hamilton: An American Musical"</text>
                    <rect x="0" y="0" width="36865" height="500" style="fill:tan;stroke:black;stroke-width:25"/>
                    <g>
                        <circle cx="0" cy="-250" r="0" stroke="black" fill="goldenrod" stroke-width="2" opacity="0.8"/>
                        <line x1="0" y1="0" x2="0" y2="-250" style="stroke:black;stroke-width:30"/>
                        <text x="-45" y="90" text-anchor="end" transform="rotate(-45, 0, 0)" font-size="100">1755</text>
                    </g>
                    <g>
                        <circle cx="365" cy="-250" r="0" stroke="black" fill="goldenrod" stroke-width="2" opacity="0.8"/>
                        <line x1="365" y1="0" x2="365" y2="-250" style="stroke:black;stroke-width:30"/>
                        <text x="320" y="90" text-anchor="end" transform="rotate(-45, 365, 0)" font-size="100">1756</text>
                    </g>
                    <g>
                        <circle cx="730" cy="-250" r="35" stroke="black" fill="goldenrod" stroke-width="2" opacity="0.8"/>
                        <line x1="730" y1="0" x2="730" y2="-250" style="stroke:black;stroke-width:30"/>
                        <text x="685" y="90" text-anchor="end" transform="rotate(-45, 730, 0)" font-size="100">1757</text>
                    </g>
                    <g>
                        <circle cx="1095" cy="-250" r="0" stroke="black" fill="goldenrod" stroke-width="2" opacity="0.8"/>
                        <line x1="1095" y1="0" x2="1095" y2="-250" style="stroke:black;stroke-width:30"/>
                        <text x="1050" y="90" text-anchor="end" transform="rotate(-45, 1095, 0)" font-size="100">1758</text>
                    </g>
                    <g>
                        <circle cx="1460" cy="-250" r="0" stroke="black" fill="goldenrod" stroke-width="2" opacity="0.8"/>
                        <line x1="1460" y1="0" x2="1460" y2="-250" style="stroke:black;stroke-width:30"/>
                        <text x="1415" y="90" text-anchor="end" transform="rotate(-45, 1460, 0)" font-size="100">1759</text>
                    </g>
                    <g>
                        <circle cx="1825" cy="-250" r="0" stroke="black" fill="goldenrod" stroke-width="2" opacity="0.8"/>
                        <line x1="1825" y1="0" x2="1825" y2="-250" style="stroke:black;stroke-width:30"/>
                        <text x="1780" y="90" text-anchor="end" transform="rotate(-45, 1825, 0)" font-size="100">1760</text>
                    </g>
                    <g>
                        <circle cx="2190" cy="-250" r="0" stroke="black" fill="goldenrod" stroke-width="2" opacity="0.8"/>
                        <line x1="2190" y1="0" x2="2190" y2="-250" style="stroke:black;stroke-width:30"/>
                        <text x="2145" y="90" text-anchor="end" transform="rotate(-45, 2190, 0)" font-size="100">1761</text>
                    </g>
                    <g>
                        <circle cx="2555" cy="-250" r="0" stroke="black" fill="goldenrod" stroke-width="2" opacity="0.8"/>
                        <line x1="2555" y1="0" x2="2555" y2="-250" style="stroke:black;stroke-width:30"/>
                        <text x="2510" y="90" text-anchor="end" transform="rotate(-45, 2555, 0)" font-size="100">1762</text>
                    </g>
                    <g>
                        <circle cx="2920" cy="-250" r="0" stroke="black" fill="goldenrod" stroke-width="2" opacity="0.8"/>
                        <line x1="2920" y1="0" x2="2920" y2="-250" style="stroke:black;stroke-width:30"/>
                        <text x="2875" y="90" text-anchor="end" transform="rotate(-45, 2920, 0)" font-size="100">1763</text>
                    </g>
                    <g>
                        <circle cx="3285" cy="-250" r="0" stroke="black" fill="goldenrod" stroke-width="2" opacity="0.8"/>
                        <line x1="3285" y1="0" x2="3285" y2="-250" style="stroke:black;stroke-width:30"/>
                        <text x="3240" y="90" text-anchor="end" transform="rotate(-45, 3285, 0)" font-size="100">1764</text>
                    </g>
                    <g>
                        <circle cx="3650" cy="-250" r="0" stroke="black" fill="goldenrod" stroke-width="2" opacity="0.8"/>
                        <line x1="3650" y1="0" x2="3650" y2="-250" style="stroke:black;stroke-width:30"/>
                        <text x="3605" y="90" text-anchor="end" transform="rotate(-45, 3650, 0)" font-size="100">1765</text>
                    </g>
                    <g>
                        <circle cx="4015" cy="-250" r="0" stroke="black" fill="goldenrod" stroke-width="2" opacity="0.8"/>
                        <line x1="4015" y1="0" x2="4015" y2="-250" style="stroke:black;stroke-width:30"/>
                        <text x="3970" y="90" text-anchor="end" transform="rotate(-45, 4015, 0)" font-size="100">1766</text>
                    </g>
                    <g>
                        <circle cx="4380" cy="-250" r="35" stroke="black" fill="goldenrod" stroke-width="2" opacity="0.8"/>
                        <line x1="4380" y1="0" x2="4380" y2="-250" style="stroke:black;stroke-width:30"/>
                        <text x="4335" y="90" text-anchor="end" transform="rotate(-45, 4380, 0)" font-size="100">1767</text>
                    </g>
                    <g>
                        <circle cx="4745" cy="-250" r="35" stroke="black" fill="goldenrod" stroke-width="2" opacity="0.8"/>
                        <line x1="4745" y1="0" x2="4745" y2="-250" style="stroke:black;stroke-width:30"/>
                        <text x="4700" y="90" text-anchor="end" transform="rotate(-45, 4745, 0)" font-size="100">1768</text>
                    </g>
                    <g>
                        <circle cx="5110" cy="-250" r="0" stroke="black" fill="goldenrod" stroke-width="2" opacity="0.8"/>
                        <line x1="5110" y1="0" x2="5110" y2="-250" style="stroke:black;stroke-width:30"/>
                        <text x="5065" y="90" text-anchor="end" transform="rotate(-45, 5110, 0)" font-size="100">1769</text>
                    </g>
                    <g>
                        <circle cx="5475" cy="-250" r="0" stroke="black" fill="goldenrod" stroke-width="2" opacity="0.8"/>
                        <line x1="5475" y1="0" x2="5475" y2="-250" style="stroke:black;stroke-width:30"/>
                        <text x="5430" y="90" text-anchor="end" transform="rotate(-45, 5475, 0)" font-size="100">1770</text>
                    </g>
                    <g>
                        <circle cx="5840" cy="-250" r="35" stroke="black" fill="goldenrod" stroke-width="2" opacity="0.8"/>
                        <line x1="5840" y1="0" x2="5840" y2="-250" style="stroke:black;stroke-width:30"/>
                        <text x="5795" y="90" text-anchor="end" transform="rotate(-45, 5840, 0)" font-size="100">1771</text>
                    </g>
                    <g>
                        <circle cx="6205" cy="-250" r="105" stroke="black" fill="goldenrod" stroke-width="2" opacity="0.8"/>
                        <line x1="6205" y1="0" x2="6205" y2="-250" style="stroke:black;stroke-width:30"/>
                        <text x="6160" y="90" text-anchor="end" transform="rotate(-45, 6205, 0)" font-size="100">1772</text>
                    </g>
                    <g>
                        <circle cx="6570" cy="-250" r="105" stroke="black" fill="goldenrod" stroke-width="2" opacity="0.8"/>
                        <line x1="6570" y1="0" x2="6570" y2="-250" style="stroke:black;stroke-width:30"/>
                        <text x="6525" y="90" text-anchor="end" transform="rotate(-45, 6570, 0)" font-size="100">1773</text>
                    </g>
                    <g>
                        <circle cx="6935" cy="-250" r="35" stroke="black" fill="goldenrod" stroke-width="2" opacity="0.8"/>
                        <line x1="6935" y1="0" x2="6935" y2="-250" style="stroke:black;stroke-width:30"/>
                        <text x="6890" y="90" text-anchor="end" transform="rotate(-45, 6935, 0)" font-size="100">1774</text>
                    </g>
                    <g>
                        <circle cx="7300" cy="-250" r="140" stroke="black" fill="goldenrod" stroke-width="2" opacity="0.8"/>
                        <line x1="7300" y1="0" x2="7300" y2="-250" style="stroke:black;stroke-width:30"/>
                        <text x="7255" y="90" text-anchor="end" transform="rotate(-45, 7300, 0)" font-size="100">1775</text>
                    </g>
                    <g>
                        <circle cx="7665" cy="-250" r="175" stroke="black" fill="goldenrod" stroke-width="2" opacity="0.8"/>
                        <line x1="7665" y1="0" x2="7665" y2="-250" style="stroke:black;stroke-width:30"/>
                        <text x="7620" y="90" text-anchor="end" transform="rotate(-45, 7665, 0)" font-size="100">1776</text>
                    </g>
                    <g>
                        <circle cx="8030" cy="-250" r="35" stroke="black" fill="goldenrod" stroke-width="2" opacity="0.8"/>
                        <line x1="8030" y1="0" x2="8030" y2="-250" style="stroke:black;stroke-width:30"/>
                        <text x="7985" y="90" text-anchor="end" transform="rotate(-45, 8030, 0)" font-size="100">1777</text>
                    </g>
                    <g>
                        <circle cx="8395" cy="-250" r="70" stroke="black" fill="goldenrod" stroke-width="2" opacity="0.8"/>
                        <line x1="8395" y1="0" x2="8395" y2="-250" style="stroke:black;stroke-width:30"/>
                        <text x="8350" y="90" text-anchor="end" transform="rotate(-45, 8395, 0)" font-size="100">1778</text>
                    </g>
                    <g>
                        <circle cx="8760" cy="-250" r="35" stroke="black" fill="goldenrod" stroke-width="2" opacity="0.8"/>
                        <line x1="8760" y1="0" x2="8760" y2="-250" style="stroke:black;stroke-width:30"/>
                        <text x="8715" y="90" text-anchor="end" transform="rotate(-45, 8760, 0)" font-size="100">1779</text>
                    </g>
                    <g>
                        <circle cx="9125" cy="-250" r="245" stroke="black" fill="goldenrod" stroke-width="2" opacity="0.8"/>
                        <line x1="9125" y1="0" x2="9125" y2="-250" style="stroke:black;stroke-width:30"/>
                        <text x="9080" y="90" text-anchor="end" transform="rotate(-45, 9125, 0)" font-size="100">1780</text>
                    </g>
                    <g>
                        <circle cx="9490" cy="-250" r="105" stroke="black" fill="goldenrod" stroke-width="2" opacity="0.8"/>
                        <line x1="9490" y1="0" x2="9490" y2="-250" style="stroke:black;stroke-width:30"/>
                        <text x="9445" y="90" text-anchor="end" transform="rotate(-45, 9490, 0)" font-size="100">1781</text>
                    </g>
                    <g>
                        <circle cx="9855" cy="-250" r="105" stroke="black" fill="goldenrod" stroke-width="2" opacity="0.8"/>
                        <line x1="9855" y1="0" x2="9855" y2="-250" style="stroke:black;stroke-width:30"/>
                        <text x="9810" y="90" text-anchor="end" transform="rotate(-45, 9855, 0)" font-size="100">1782</text>
                    </g>
                    <g>
                        <circle cx="10220" cy="-250" r="105" stroke="black" fill="goldenrod" stroke-width="2" opacity="0.8"/>
                        <line x1="10220" y1="0" x2="10220" y2="-250" style="stroke:black;stroke-width:30"/>
                        <text x="10175" y="90" text-anchor="end" transform="rotate(-45, 10220, 0)" font-size="100">1783</text>
                    </g>
                    <g>
                        <circle cx="10585" cy="-250" r="0" stroke="black" fill="goldenrod" stroke-width="2" opacity="0.8"/>
                        <line x1="10585" y1="0" x2="10585" y2="-250" style="stroke:black;stroke-width:30"/>
                        <text x="10540" y="90" text-anchor="end" transform="rotate(-45, 10585, 0)" font-size="100">1784</text>
                    </g>
                    <g>
                        <circle cx="10950" cy="-250" r="0" stroke="black" fill="goldenrod" stroke-width="2" opacity="0.8"/>
                        <line x1="10950" y1="0" x2="10950" y2="-250" style="stroke:black;stroke-width:30"/>
                        <text x="10905" y="90" text-anchor="end" transform="rotate(-45, 10950, 0)" font-size="100">1785</text>
                    </g>
                    <g>
                        <circle cx="11315" cy="-250" r="0" stroke="black" fill="goldenrod" stroke-width="2" opacity="0.8"/>
                        <line x1="11315" y1="0" x2="11315" y2="-250" style="stroke:black;stroke-width:30"/>
                        <text x="11270" y="90" text-anchor="end" transform="rotate(-45, 11315, 0)" font-size="100">1786</text>
                    </g>
                    <g>
                        <circle cx="11680" cy="-250" r="105" stroke="black" fill="goldenrod" stroke-width="2" opacity="0.8"/>
                        <line x1="11680" y1="0" x2="11680" y2="-250" style="stroke:black;stroke-width:30"/>
                        <text x="11635" y="90" text-anchor="end" transform="rotate(-45, 11680, 0)" font-size="100">1787</text>
                    </g>
                    <g>
                        <circle cx="12045" cy="-250" r="0" stroke="black" fill="goldenrod" stroke-width="2" opacity="0.8"/>
                        <line x1="12045" y1="0" x2="12045" y2="-250" style="stroke:black;stroke-width:30"/>
                        <text x="12000" y="90" text-anchor="end" transform="rotate(-45, 12045, 0)" font-size="100">1788</text>
                    </g>
                    <g>
                        <circle cx="12410" cy="-250" r="175" stroke="black" fill="goldenrod" stroke-width="2" opacity="0.8"/>
                        <line x1="12410" y1="0" x2="12410" y2="-250" style="stroke:black;stroke-width:30"/>
                        <text x="12365" y="90" text-anchor="end" transform="rotate(-45, 12410, 0)" font-size="100">1789</text>
                    </g>
                    <g>
                        <circle cx="12775" cy="-250" r="105" stroke="black" fill="goldenrod" stroke-width="2" opacity="0.8"/>
                        <line x1="12775" y1="0" x2="12775" y2="-250" style="stroke:black;stroke-width:30"/>
                        <text x="12730" y="90" text-anchor="end" transform="rotate(-45, 12775, 0)" font-size="100">1790</text>
                    </g>
                    <g>
                        <circle cx="13140" cy="-250" r="140" stroke="black" fill="goldenrod" stroke-width="2" opacity="0.8"/>
                        <line x1="13140" y1="0" x2="13140" y2="-250" style="stroke:black;stroke-width:30"/>
                        <text x="13095" y="90" text-anchor="end" transform="rotate(-45, 13140, 0)" font-size="100">1791</text>
                    </g>
                    <g>
                        <circle cx="13505" cy="-250" r="0" stroke="black" fill="goldenrod" stroke-width="2" opacity="0.8"/>
                        <line x1="13505" y1="0" x2="13505" y2="-250" style="stroke:black;stroke-width:30"/>
                        <text x="13460" y="90" text-anchor="end" transform="rotate(-45, 13505, 0)" font-size="100">1792</text>
                    </g>
                    <g>
                        <circle cx="13870" cy="-250" r="105" stroke="black" fill="goldenrod" stroke-width="2" opacity="0.8"/>
                        <line x1="13870" y1="0" x2="13870" y2="-250" style="stroke:black;stroke-width:30"/>
                        <text x="13825" y="90" text-anchor="end" transform="rotate(-45, 13870, 0)" font-size="100">1793</text>
                    </g>
                    <g>
                        <circle cx="14235" cy="-250" r="35" stroke="black" fill="goldenrod" stroke-width="2" opacity="0.8"/>
                        <line x1="14235" y1="0" x2="14235" y2="-250" style="stroke:black;stroke-width:30"/>
                        <text x="14190" y="90" text-anchor="end" transform="rotate(-45, 14235, 0)" font-size="100">1794</text>
                    </g>
                    <g>
                        <circle cx="14600" cy="-250" r="35" stroke="black" fill="goldenrod" stroke-width="2" opacity="0.8"/>
                        <line x1="14600" y1="0" x2="14600" y2="-250" style="stroke:black;stroke-width:30"/>
                        <text x="14555" y="90" text-anchor="end" transform="rotate(-45, 14600, 0)" font-size="100">1795</text>
                    </g>
                    <g>
                        <circle cx="14965" cy="-250" r="35" stroke="black" fill="goldenrod" stroke-width="2" opacity="0.8"/>
                        <line x1="14965" y1="0" x2="14965" y2="-250" style="stroke:black;stroke-width:30"/>
                        <text x="14920" y="90" text-anchor="end" transform="rotate(-45, 14965, 0)" font-size="100">1796</text>
                    </g>
                    <g>
                        <circle cx="15330" cy="-250" r="175" stroke="black" fill="goldenrod" stroke-width="2" opacity="0.8"/>
                        <line x1="15330" y1="0" x2="15330" y2="-250" style="stroke:black;stroke-width:30"/>
                        <text x="15285" y="90" text-anchor="end" transform="rotate(-45, 15330, 0)" font-size="100">1797</text>
                    </g>
                    <g>
                        <circle cx="15695" cy="-250" r="0" stroke="black" fill="goldenrod" stroke-width="2" opacity="0.8"/>
                        <line x1="15695" y1="0" x2="15695" y2="-250" style="stroke:black;stroke-width:30"/>
                        <text x="15650" y="90" text-anchor="end" transform="rotate(-45, 15695, 0)" font-size="100">1798</text>
                    </g>
                    <g>
                        <circle cx="16060" cy="-250" r="0" stroke="black" fill="goldenrod" stroke-width="2" opacity="0.8"/>
                        <line x1="16060" y1="0" x2="16060" y2="-250" style="stroke:black;stroke-width:30"/>
                        <text x="16015" y="90" text-anchor="end" transform="rotate(-45, 16060, 0)" font-size="100">1799</text>
                    </g>
                    <g>
                        <circle cx="16425" cy="-250" r="140" stroke="black" fill="goldenrod" stroke-width="2" opacity="0.8"/>
                        <line x1="16425" y1="0" x2="16425" y2="-250" style="stroke:black;stroke-width:30"/>
                        <text x="16380" y="90" text-anchor="end" transform="rotate(-45, 16425, 0)" font-size="100">1800</text>
                    </g>
                    <g>
                        <circle cx="16790" cy="-250" r="175" stroke="black" fill="goldenrod" stroke-width="2" opacity="0.8"/>
                        <line x1="16790" y1="0" x2="16790" y2="-250" style="stroke:black;stroke-width:30"/>
                        <text x="16745" y="90" text-anchor="end" transform="rotate(-45, 16790, 0)" font-size="100">1801</text>
                    </g>
                    <g>
                        <circle cx="17155" cy="-250" r="35" stroke="black" fill="goldenrod" stroke-width="2" opacity="0.8"/>
                        <line x1="17155" y1="0" x2="17155" y2="-250" style="stroke:black;stroke-width:30"/>
                        <text x="17110" y="90" text-anchor="end" transform="rotate(-45, 17155, 0)" font-size="100">1802</text>
                    </g>
                    <g>
                        <circle cx="17520" cy="-250" r="0" stroke="black" fill="goldenrod" stroke-width="2" opacity="0.8"/>
                        <line x1="17520" y1="0" x2="17520" y2="-250" style="stroke:black;stroke-width:30"/>
                        <text x="17475" y="90" text-anchor="end" transform="rotate(-45, 17520, 0)" font-size="100">1803</text>
                    </g>
                    <g>
                        <circle cx="17885" cy="-250" r="140" stroke="black" fill="goldenrod" stroke-width="2" opacity="0.8"/>
                        <line x1="17885" y1="0" x2="17885" y2="-250" style="stroke:black;stroke-width:30"/>
                        <text x="17840" y="90" text-anchor="end" transform="rotate(-45, 17885, 0)" font-size="100">1804</text>
                    </g>
                    <g>
                        <circle cx="18250" cy="-250" r="0" stroke="black" fill="goldenrod" stroke-width="2" opacity="0.8"/>
                        <line x1="18250" y1="0" x2="18250" y2="-250" style="stroke:black;stroke-width:30"/>
                        <text x="18205" y="90" text-anchor="end" transform="rotate(-45, 18250, 0)" font-size="100">1805</text>
                    </g>
                    <g>
                        <circle cx="18615" cy="-250" r="35" stroke="black" fill="goldenrod" stroke-width="2" opacity="0.8"/>
                        <line x1="18615" y1="0" x2="18615" y2="-250" style="stroke:black;stroke-width:30"/>
                        <text x="18570" y="90" text-anchor="end" transform="rotate(-45, 18615, 0)" font-size="100">1806</text>
                    </g>
                    <g>
                        <circle cx="18980" cy="-250" r="0" stroke="black" fill="goldenrod" stroke-width="2" opacity="0.8"/>
                        <line x1="18980" y1="0" x2="18980" y2="-250" style="stroke:black;stroke-width:30"/>
                        <text x="18935" y="90" text-anchor="end" transform="rotate(-45, 18980, 0)" font-size="100">1807</text>
                    </g>
                    <g>
                        <circle cx="19345" cy="-250" r="0" stroke="black" fill="goldenrod" stroke-width="2" opacity="0.8"/>
                        <line x1="19345" y1="0" x2="19345" y2="-250" style="stroke:black;stroke-width:30"/>
                        <text x="19300" y="90" text-anchor="end" transform="rotate(-45, 19345, 0)" font-size="100">1808</text>
                    </g>
                    <g>
                        <circle cx="19710" cy="-250" r="0" stroke="black" fill="goldenrod" stroke-width="2" opacity="0.8"/>
                        <line x1="19710" y1="0" x2="19710" y2="-250" style="stroke:black;stroke-width:30"/>
                        <text x="19665" y="90" text-anchor="end" transform="rotate(-45, 19710, 0)" font-size="100">1809</text>
                    </g>
                    <g>
                        <circle cx="20075" cy="-250" r="0" stroke="black" fill="goldenrod" stroke-width="2" opacity="0.8"/>
                        <line x1="20075" y1="0" x2="20075" y2="-250" style="stroke:black;stroke-width:30"/>
                        <text x="20030" y="90" text-anchor="end" transform="rotate(-45, 20075, 0)" font-size="100">1810</text>
                    </g>
                    <g>
                        <circle cx="20440" cy="-250" r="0" stroke="black" fill="goldenrod" stroke-width="2" opacity="0.8"/>
                        <line x1="20440" y1="0" x2="20440" y2="-250" style="stroke:black;stroke-width:30"/>
                        <text x="20395" y="90" text-anchor="end" transform="rotate(-45, 20440, 0)" font-size="100">1811</text>
                    </g>
                    <g>
                        <circle cx="20805" cy="-250" r="0" stroke="black" fill="goldenrod" stroke-width="2" opacity="0.8"/>
                        <line x1="20805" y1="0" x2="20805" y2="-250" style="stroke:black;stroke-width:30"/>
                        <text x="20760" y="90" text-anchor="end" transform="rotate(-45, 20805, 0)" font-size="100">1812</text>
                    </g>
                    <g>
                        <circle cx="21170" cy="-250" r="0" stroke="black" fill="goldenrod" stroke-width="2" opacity="0.8"/>
                        <line x1="21170" y1="0" x2="21170" y2="-250" style="stroke:black;stroke-width:30"/>
                        <text x="21125" y="90" text-anchor="end" transform="rotate(-45, 21170, 0)" font-size="100">1813</text>
                    </g>
                    <g>
                        <circle cx="21535" cy="-250" r="35" stroke="black" fill="goldenrod" stroke-width="2" opacity="0.8"/>
                        <line x1="21535" y1="0" x2="21535" y2="-250" style="stroke:black;stroke-width:30"/>
                        <text x="21490" y="90" text-anchor="end" transform="rotate(-45, 21535, 0)" font-size="100">1814</text>
                    </g>
                    <g>
                        <circle cx="21900" cy="-250" r="0" stroke="black" fill="goldenrod" stroke-width="2" opacity="0.8"/>
                        <line x1="21900" y1="0" x2="21900" y2="-250" style="stroke:black;stroke-width:30"/>
                        <text x="21855" y="90" text-anchor="end" transform="rotate(-45, 21900, 0)" font-size="100">1815</text>
                    </g>
                    <g>
                        <circle cx="22265" cy="-250" r="0" stroke="black" fill="goldenrod" stroke-width="2" opacity="0.8"/>
                        <line x1="22265" y1="0" x2="22265" y2="-250" style="stroke:black;stroke-width:30"/>
                        <text x="22220" y="90" text-anchor="end" transform="rotate(-45, 22265, 0)" font-size="100">1816</text>
                    </g>
                    <g>
                        <circle cx="22630" cy="-250" r="0" stroke="black" fill="goldenrod" stroke-width="2" opacity="0.8"/>
                        <line x1="22630" y1="0" x2="22630" y2="-250" style="stroke:black;stroke-width:30"/>
                        <text x="22585" y="90" text-anchor="end" transform="rotate(-45, 22630, 0)" font-size="100">1817</text>
                    </g>
                    <g>
                        <circle cx="22995" cy="-250" r="0" stroke="black" fill="goldenrod" stroke-width="2" opacity="0.8"/>
                        <line x1="22995" y1="0" x2="22995" y2="-250" style="stroke:black;stroke-width:30"/>
                        <text x="22950" y="90" text-anchor="end" transform="rotate(-45, 22995, 0)" font-size="100">1818</text>
                    </g>
                    <g>
                        <circle cx="23360" cy="-250" r="0" stroke="black" fill="goldenrod" stroke-width="2" opacity="0.8"/>
                        <line x1="23360" y1="0" x2="23360" y2="-250" style="stroke:black;stroke-width:30"/>
                        <text x="23315" y="90" text-anchor="end" transform="rotate(-45, 23360, 0)" font-size="100">1819</text>
                    </g>
                    <g>
                        <circle cx="23725" cy="-250" r="0" stroke="black" fill="goldenrod" stroke-width="2" opacity="0.8"/>
                        <line x1="23725" y1="0" x2="23725" y2="-250" style="stroke:black;stroke-width:30"/>
                        <text x="23680" y="90" text-anchor="end" transform="rotate(-45, 23725, 0)" font-size="100">1820</text>
                    </g>
                    <g>
                        <circle cx="24090" cy="-250" r="0" stroke="black" fill="goldenrod" stroke-width="2" opacity="0.8"/>
                        <line x1="24090" y1="0" x2="24090" y2="-250" style="stroke:black;stroke-width:30"/>
                        <text x="24045" y="90" text-anchor="end" transform="rotate(-45, 24090, 0)" font-size="100">1821</text>
                    </g>
                    <g>
                        <circle cx="24455" cy="-250" r="0" stroke="black" fill="goldenrod" stroke-width="2" opacity="0.8"/>
                        <line x1="24455" y1="0" x2="24455" y2="-250" style="stroke:black;stroke-width:30"/>
                        <text x="24410" y="90" text-anchor="end" transform="rotate(-45, 24455, 0)" font-size="100">1822</text>
                    </g>
                    <g>
                        <circle cx="24820" cy="-250" r="0" stroke="black" fill="goldenrod" stroke-width="2" opacity="0.8"/>
                        <line x1="24820" y1="0" x2="24820" y2="-250" style="stroke:black;stroke-width:30"/>
                        <text x="24775" y="90" text-anchor="end" transform="rotate(-45, 24820, 0)" font-size="100">1823</text>
                    </g>
                    <g>
                        <circle cx="25185" cy="-250" r="0" stroke="black" fill="goldenrod" stroke-width="2" opacity="0.8"/>
                        <line x1="25185" y1="0" x2="25185" y2="-250" style="stroke:black;stroke-width:30"/>
                        <text x="25140" y="90" text-anchor="end" transform="rotate(-45, 25185, 0)" font-size="100">1824</text>
                    </g>
                    <g>
                        <circle cx="25550" cy="-250" r="0" stroke="black" fill="goldenrod" stroke-width="2" opacity="0.8"/>
                        <line x1="25550" y1="0" x2="25550" y2="-250" style="stroke:black;stroke-width:30"/>
                        <text x="25505" y="90" text-anchor="end" transform="rotate(-45, 25550, 0)" font-size="100">1825</text>
                    </g>
                    <g>
                        <circle cx="25915" cy="-250" r="0" stroke="black" fill="goldenrod" stroke-width="2" opacity="0.8"/>
                        <line x1="25915" y1="0" x2="25915" y2="-250" style="stroke:black;stroke-width:30"/>
                        <text x="25870" y="90" text-anchor="end" transform="rotate(-45, 25915, 0)" font-size="100">1826</text>
                    </g>
                    <g>
                        <circle cx="26280" cy="-250" r="0" stroke="black" fill="goldenrod" stroke-width="2" opacity="0.8"/>
                        <line x1="26280" y1="0" x2="26280" y2="-250" style="stroke:black;stroke-width:30"/>
                        <text x="26235" y="90" text-anchor="end" transform="rotate(-45, 26280, 0)" font-size="100">1827</text>
                    </g>
                    <g>
                        <circle cx="26645" cy="-250" r="0" stroke="black" fill="goldenrod" stroke-width="2" opacity="0.8"/>
                        <line x1="26645" y1="0" x2="26645" y2="-250" style="stroke:black;stroke-width:30"/>
                        <text x="26600" y="90" text-anchor="end" transform="rotate(-45, 26645, 0)" font-size="100">1828</text>
                    </g>
                    <g>
                        <circle cx="27010" cy="-250" r="0" stroke="black" fill="goldenrod" stroke-width="2" opacity="0.8"/>
                        <line x1="27010" y1="0" x2="27010" y2="-250" style="stroke:black;stroke-width:30"/>
                        <text x="26965" y="90" text-anchor="end" transform="rotate(-45, 27010, 0)" font-size="100">1829</text>
                    </g>
                    <g>
                        <circle cx="27375" cy="-250" r="0" stroke="black" fill="goldenrod" stroke-width="2" opacity="0.8"/>
                        <line x1="27375" y1="0" x2="27375" y2="-250" style="stroke:black;stroke-width:30"/>
                        <text x="27330" y="90" text-anchor="end" transform="rotate(-45, 27375, 0)" font-size="100">1830</text>
                    </g>
                    <g>
                        <circle cx="27740" cy="-250" r="0" stroke="black" fill="goldenrod" stroke-width="2" opacity="0.8"/>
                        <line x1="27740" y1="0" x2="27740" y2="-250" style="stroke:black;stroke-width:30"/>
                        <text x="27695" y="90" text-anchor="end" transform="rotate(-45, 27740, 0)" font-size="100">1831</text>
                    </g>
                    <g>
                        <circle cx="28105" cy="-250" r="0" stroke="black" fill="goldenrod" stroke-width="2" opacity="0.8"/>
                        <line x1="28105" y1="0" x2="28105" y2="-250" style="stroke:black;stroke-width:30"/>
                        <text x="28060" y="90" text-anchor="end" transform="rotate(-45, 28105, 0)" font-size="100">1832</text>
                    </g>
                    <g>
                        <circle cx="28470" cy="-250" r="0" stroke="black" fill="goldenrod" stroke-width="2" opacity="0.8"/>
                        <line x1="28470" y1="0" x2="28470" y2="-250" style="stroke:black;stroke-width:30"/>
                        <text x="28425" y="90" text-anchor="end" transform="rotate(-45, 28470, 0)" font-size="100">1833</text>
                    </g>
                    <g>
                        <circle cx="28835" cy="-250" r="0" stroke="black" fill="goldenrod" stroke-width="2" opacity="0.8"/>
                        <line x1="28835" y1="0" x2="28835" y2="-250" style="stroke:black;stroke-width:30"/>
                        <text x="28790" y="90" text-anchor="end" transform="rotate(-45, 28835, 0)" font-size="100">1834</text>
                    </g>
                    <g>
                        <circle cx="29200" cy="-250" r="0" stroke="black" fill="goldenrod" stroke-width="2" opacity="0.8"/>
                        <line x1="29200" y1="0" x2="29200" y2="-250" style="stroke:black;stroke-width:30"/>
                        <text x="29155" y="90" text-anchor="end" transform="rotate(-45, 29200, 0)" font-size="100">1835</text>
                    </g>
                    <g>
                        <circle cx="29565" cy="-250" r="0" stroke="black" fill="goldenrod" stroke-width="2" opacity="0.8"/>
                        <line x1="29565" y1="0" x2="29565" y2="-250" style="stroke:black;stroke-width:30"/>
                        <text x="29520" y="90" text-anchor="end" transform="rotate(-45, 29565, 0)" font-size="100">1836</text>
                    </g>
                    <g>
                        <circle cx="29930" cy="-250" r="0" stroke="black" fill="goldenrod" stroke-width="2" opacity="0.8"/>
                        <line x1="29930" y1="0" x2="29930" y2="-250" style="stroke:black;stroke-width:30"/>
                        <text x="29885" y="90" text-anchor="end" transform="rotate(-45, 29930, 0)" font-size="100">1837</text>
                    </g>
                    <g>
                        <circle cx="30295" cy="-250" r="0" stroke="black" fill="goldenrod" stroke-width="2" opacity="0.8"/>
                        <line x1="30295" y1="0" x2="30295" y2="-250" style="stroke:black;stroke-width:30"/>
                        <text x="30250" y="90" text-anchor="end" transform="rotate(-45, 30295, 0)" font-size="100">1838</text>
                    </g>
                    <g>
                        <circle cx="30660" cy="-250" r="0" stroke="black" fill="goldenrod" stroke-width="2" opacity="0.8"/>
                        <line x1="30660" y1="0" x2="30660" y2="-250" style="stroke:black;stroke-width:30"/>
                        <text x="30615" y="90" text-anchor="end" transform="rotate(-45, 30660, 0)" font-size="100">1839</text>
                    </g>
                    <g>
                        <circle cx="31025" cy="-250" r="0" stroke="black" fill="goldenrod" stroke-width="2" opacity="0.8"/>
                        <line x1="31025" y1="0" x2="31025" y2="-250" style="stroke:black;stroke-width:30"/>
                        <text x="30980" y="90" text-anchor="end" transform="rotate(-45, 31025, 0)" font-size="100">1840</text>
                    </g>
                    <g>
                        <circle cx="31390" cy="-250" r="0" stroke="black" fill="goldenrod" stroke-width="2" opacity="0.8"/>
                        <line x1="31390" y1="0" x2="31390" y2="-250" style="stroke:black;stroke-width:30"/>
                        <text x="31345" y="90" text-anchor="end" transform="rotate(-45, 31390, 0)" font-size="100">1841</text>
                    </g>
                    <g>
                        <circle cx="31755" cy="-250" r="0" stroke="black" fill="goldenrod" stroke-width="2" opacity="0.8"/>
                        <line x1="31755" y1="0" x2="31755" y2="-250" style="stroke:black;stroke-width:30"/>
                        <text x="31710" y="90" text-anchor="end" transform="rotate(-45, 31755, 0)" font-size="100">1842</text>
                    </g>
                    <g>
                        <circle cx="32120" cy="-250" r="0" stroke="black" fill="goldenrod" stroke-width="2" opacity="0.8"/>
                        <line x1="32120" y1="0" x2="32120" y2="-250" style="stroke:black;stroke-width:30"/>
                        <text x="32075" y="90" text-anchor="end" transform="rotate(-45, 32120, 0)" font-size="100">1843</text>
                    </g>
                    <g>
                        <circle cx="32485" cy="-250" r="0" stroke="black" fill="goldenrod" stroke-width="2" opacity="0.8"/>
                        <line x1="32485" y1="0" x2="32485" y2="-250" style="stroke:black;stroke-width:30"/>
                        <text x="32440" y="90" text-anchor="end" transform="rotate(-45, 32485, 0)" font-size="100">1844</text>
                    </g>
                    <g>
                        <circle cx="32850" cy="-250" r="0" stroke="black" fill="goldenrod" stroke-width="2" opacity="0.8"/>
                        <line x1="32850" y1="0" x2="32850" y2="-250" style="stroke:black;stroke-width:30"/>
                        <text x="32805" y="90" text-anchor="end" transform="rotate(-45, 32850, 0)" font-size="100">1845</text>
                    </g>
                    <g>
                        <circle cx="33215" cy="-250" r="0" stroke="black" fill="goldenrod" stroke-width="2" opacity="0.8"/>
                        <line x1="33215" y1="0" x2="33215" y2="-250" style="stroke:black;stroke-width:30"/>
                        <text x="33170" y="90" text-anchor="end" transform="rotate(-45, 33215, 0)" font-size="100">1846</text>
                    </g>
                    <g>
                        <circle cx="33580" cy="-250" r="0" stroke="black" fill="goldenrod" stroke-width="2" opacity="0.8"/>
                        <line x1="33580" y1="0" x2="33580" y2="-250" style="stroke:black;stroke-width:30"/>
                        <text x="33535" y="90" text-anchor="end" transform="rotate(-45, 33580, 0)" font-size="100">1847</text>
                    </g>
                    <g>
                        <circle cx="33945" cy="-250" r="35" stroke="black" fill="goldenrod" stroke-width="2" opacity="0.8"/>
                        <line x1="33945" y1="0" x2="33945" y2="-250" style="stroke:black;stroke-width:30"/>
                        <text x="33900" y="90" text-anchor="end" transform="rotate(-45, 33945, 0)" font-size="100">1848</text>
                    </g>
                    <g>
                        <circle cx="34310" cy="-250" r="0" stroke="black" fill="goldenrod" stroke-width="2" opacity="0.8"/>
                        <line x1="34310" y1="0" x2="34310" y2="-250" style="stroke:black;stroke-width:30"/>
                        <text x="34265" y="90" text-anchor="end" transform="rotate(-45, 34310, 0)" font-size="100">1849</text>
                    </g>
                    <g>
                        <circle cx="34675" cy="-250" r="0" stroke="black" fill="goldenrod" stroke-width="2" opacity="0.8"/>
                        <line x1="34675" y1="0" x2="34675" y2="-250" style="stroke:black;stroke-width:30"/>
                        <text x="34630" y="90" text-anchor="end" transform="rotate(-45, 34675, 0)" font-size="100">1850</text>
                    </g>
                    <g>
                        <circle cx="35040" cy="-250" r="0" stroke="black" fill="goldenrod" stroke-width="2" opacity="0.8"/>
                        <line x1="35040" y1="0" x2="35040" y2="-250" style="stroke:black;stroke-width:30"/>
                        <text x="34995" y="90" text-anchor="end" transform="rotate(-45, 35040, 0)" font-size="100">1851</text>
                    </g>
                    <g>
                        <circle cx="35405" cy="-250" r="0" stroke="black" fill="goldenrod" stroke-width="2" opacity="0.8"/>
                        <line x1="35405" y1="0" x2="35405" y2="-250" style="stroke:black;stroke-width:30"/>
                        <text x="35360" y="90" text-anchor="end" transform="rotate(-45, 35405, 0)" font-size="100">1852</text>
                    </g>
                    <g>
                        <circle cx="35770" cy="-250" r="0" stroke="black" fill="goldenrod" stroke-width="2" opacity="0.8"/>
                        <line x1="35770" y1="0" x2="35770" y2="-250" style="stroke:black;stroke-width:30"/>
                        <text x="35725" y="90" text-anchor="end" transform="rotate(-45, 35770, 0)" font-size="100">1853</text>
                    </g>
                    <g>
                        <circle cx="36135" cy="-250" r="35" stroke="black" fill="goldenrod" stroke-width="2" opacity="0.8"/>
                        <line x1="36135" y1="0" x2="36135" y2="-250" style="stroke:black;stroke-width:30"/>
                        <text x="36090" y="90" text-anchor="end" transform="rotate(-45, 36135, 0)" font-size="100">1854</text>
                    </g>
                    <g>
                        <circle cx="36500" cy="-250" r="0" stroke="black" fill="goldenrod" stroke-width="2" opacity="0.8"/>
                        <line x1="36500" y1="0" x2="36500" y2="-250" style="stroke:black;stroke-width:30"/>
                        <text x="36455" y="90" text-anchor="end" transform="rotate(-45, 36500, 0)" font-size="100">1855</text>
                    </g>
                </g>
            </svg>
        