<?xml version="1.0" encoding="UTF-8"?>
<svg xmlns="http://www.w3.org/2000/svg"
     width="1800"
     height="800"
     viewBox="0 0 2160 800">
   <g transform="translate(100 600)">
      <text x="35"
            y="15"
            text-anchor="end"
            transform="rotate(-45 35, 0)"
            style="font-size:14px"
            font-family="georgia">Alexander Hamilton</text>
      <text x="70"
            y="15"
            text-anchor="end"
            transform="rotate(-45 70, 0)"
            style="font-size:14px"
            font-family="georgia">Aaron Burr, Sir</text>
      <text x="105"
            y="15"
            text-anchor="end"
            transform="rotate(-45 105, 0)"
            style="font-size:14px"
            font-family="georgia">My Shot</text>
      <text x="140"
            y="15"
            text-anchor="end"
            transform="rotate(-45 140, 0)"
            style="font-size:14px"
            font-family="georgia">The Story of Tonight</text>
      <text x="175"
            y="15"
            text-anchor="end"
            transform="rotate(-45 175, 0)"
            style="font-size:14px"
            font-family="georgia">The Schuyler Sisters</text>
      <text x="210"
            y="15"
            text-anchor="end"
            transform="rotate(-45 210, 0)"
            style="font-size:14px"
            font-family="georgia">Farmer Refuted</text>
      <text x="245"
            y="15"
            text-anchor="end"
            transform="rotate(-45 245, 0)"
            style="font-size:14px"
            font-family="georgia">You'll Be Back</text>
      <text x="280"
            y="15"
            text-anchor="end"
            transform="rotate(-45 280, 0)"
            style="font-size:14px"
            font-family="georgia">Right Hand Man</text>
      <text x="315"
            y="15"
            text-anchor="end"
            transform="rotate(-45 315, 0)"
            style="font-size:14px"
            font-family="georgia">A Winter's Ball</text>
      <text x="350"
            y="15"
            text-anchor="end"
            transform="rotate(-45 350, 0)"
            style="font-size:14px"
            font-family="georgia">Helpless</text>
      <text x="385"
            y="15"
            text-anchor="end"
            transform="rotate(-45 385, 0)"
            style="font-size:14px"
            font-family="georgia">Satisfied</text>
      <text x="420"
            y="15"
            text-anchor="end"
            transform="rotate(-45 420, 0)"
            style="font-size:14px"
            font-family="georgia">The Story of Tonight (Reprise)</text>
      <text x="455"
            y="15"
            text-anchor="end"
            transform="rotate(-45 455, 0)"
            style="font-size:14px"
            font-family="georgia">Wait for It</text>
      <text x="490"
            y="15"
            text-anchor="end"
            transform="rotate(-45 490, 0)"
            style="font-size:14px"
            font-family="georgia">Stay Alive</text>
      <text x="525"
            y="15"
            text-anchor="end"
            transform="rotate(-45 525, 0)"
            style="font-size:14px"
            font-family="georgia">Ten Duel Commandments</text>
      <text x="560"
            y="15"
            text-anchor="end"
            transform="rotate(-45 560, 0)"
            style="font-size:14px"
            font-family="georgia">Meet Me Inside</text>
      <text x="595"
            y="15"
            text-anchor="end"
            transform="rotate(-45 595, 0)"
            style="font-size:14px"
            font-family="georgia">That Would Be Enough</text>
      <text x="630"
            y="15"
            text-anchor="end"
            transform="rotate(-45 630, 0)"
            style="font-size:14px"
            font-family="georgia">Guns and Ships</text>
      <text x="665"
            y="15"
            text-anchor="end"
            transform="rotate(-45 665, 0)"
            style="font-size:14px"
            font-family="georgia">History has its Eyes on You</text>
      <text x="700"
            y="15"
            text-anchor="end"
            transform="rotate(-45 700, 0)"
            style="font-size:14px"
            font-family="georgia">Yorktown (The World Turned Upside Down)</text>
      <text x="735"
            y="15"
            text-anchor="end"
            transform="rotate(-45 735, 0)"
            style="font-size:14px"
            font-family="georgia">What Comes Next?</text>
      <text x="770"
            y="15"
            text-anchor="end"
            transform="rotate(-45 770, 0)"
            style="font-size:14px"
            font-family="georgia">Dear Theodosia</text>
      <text x="805"
            y="15"
            text-anchor="end"
            transform="rotate(-45 805, 0)"
            style="font-size:14px"
            font-family="georgia">Non-Stop</text>
      <text x="840"
            y="15"
            text-anchor="end"
            transform="rotate(-45 840, 0)"
            style="font-size:14px"
            font-family="georgia">What'd I Miss</text>
      <text x="875"
            y="15"
            text-anchor="end"
            transform="rotate(-45 875, 0)"
            style="font-size:14px"
            font-family="georgia">Cabinet Battle #1</text>
      <text x="910"
            y="15"
            text-anchor="end"
            transform="rotate(-45 910, 0)"
            style="font-size:14px"
            font-family="georgia">Take A Break</text>
      <text x="945"
            y="15"
            text-anchor="end"
            transform="rotate(-45 945, 0)"
            style="font-size:14px"
            font-family="georgia">Say No to This</text>
      <text x="980"
            y="15"
            text-anchor="end"
            transform="rotate(-45 980, 0)"
            style="font-size:14px"
            font-family="georgia">The Room Where it Happens</text>
      <text x="1015"
            y="15"
            text-anchor="end"
            transform="rotate(-45 1015, 0)"
            style="font-size:14px"
            font-family="georgia">Schuyler Defeated</text>
      <text x="1050"
            y="15"
            text-anchor="end"
            transform="rotate(-45 1050, 0)"
            style="font-size:14px"
            font-family="georgia">Cabinet Battle #2</text>
      <text x="1085"
            y="15"
            text-anchor="end"
            transform="rotate(-45 1085, 0)"
            style="font-size:14px"
            font-family="georgia">Washington On Your Side</text>
      <text x="1120"
            y="15"
            text-anchor="end"
            transform="rotate(-45 1120, 0)"
            style="font-size:14px"
            font-family="georgia">One Last Time</text>
      <text x="1155"
            y="15"
            text-anchor="end"
            transform="rotate(-45 1155, 0)"
            style="font-size:14px"
            font-family="georgia">I Know Him</text>
      <text x="1190"
            y="15"
            text-anchor="end"
            transform="rotate(-45 1190, 0)"
            style="font-size:14px"
            font-family="georgia">The Adams Administration</text>
      <text x="1225"
            y="15"
            text-anchor="end"
            transform="rotate(-45 1225, 0)"
            style="font-size:14px"
            font-family="georgia">We Know</text>
      <text x="1260"
            y="15"
            text-anchor="end"
            transform="rotate(-45 1260, 0)"
            style="font-size:14px"
            font-family="georgia">Hurricane</text>
      <text x="1295"
            y="15"
            text-anchor="end"
            transform="rotate(-45 1295, 0)"
            style="font-size:14px"
            font-family="georgia">The Reynolds Pamphlet</text>
      <text x="1330"
            y="15"
            text-anchor="end"
            transform="rotate(-45 1330, 0)"
            style="font-size:14px"
            font-family="georgia">Burn</text>
      <text x="1365"
            y="15"
            text-anchor="end"
            transform="rotate(-45 1365, 0)"
            style="font-size:14px"
            font-family="georgia">Blow Us All Away</text>
      <text x="1400"
            y="15"
            text-anchor="end"
            transform="rotate(-45 1400, 0)"
            style="font-size:14px"
            font-family="georgia">Stay Alive (Reprise)</text>
      <text x="1435"
            y="15"
            text-anchor="end"
            transform="rotate(-45 1435, 0)"
            style="font-size:14px"
            font-family="georgia">It's Quiet Uptown</text>
      <text x="1470"
            y="15"
            text-anchor="end"
            transform="rotate(-45 1470, 0)"
            style="font-size:14px"
            font-family="georgia">The Election of 1800</text>
      <text x="1505"
            y="15"
            text-anchor="end"
            transform="rotate(-45 1505, 0)"
            style="font-size:14px"
            font-family="georgia">Your Obedient Servant</text>
      <text x="1540"
            y="15"
            text-anchor="end"
            transform="rotate(-45 1540, 0)"
            style="font-size:14px"
            font-family="georgia">Best of Wives and Best of Women</text>
      <text x="1575"
            y="15"
            text-anchor="end"
            transform="rotate(-45 1575, 0)"
            style="font-size:14px"
            font-family="georgia">The World Was Wide Enough</text>
      <text x="1610"
            y="15"
            text-anchor="end"
            transform="rotate(-45 1610, 0)"
            style="font-size:14px"
            font-family="georgia">Who Lives, Who Dies, Who Tells Your Story</text>
      <!--X-axis-->
      <line x1="30"
            y1="0"
            x2="1645"
            y2="0"
            stroke="black"
            stroke-width="2"/>
      <!--Y-axis-->
      <line x1="30"
            y1="0"
            x2="30"
            y2="-500"
            stroke="black"
            stroke-width="2"/>
      <text x="15" y="-100" text-anchor="middle">10</text>
      <line x1="30"
            x2="1645"
            y1="-100"
            y2="-100"
            stroke="black"
            stroke-width=".5"
            stroke-dasharray="10"/>
      <text x="15" y="-200" text-anchor="middle">20</text>
      <line x1="30"
            x2="1645"
            y1="-200"
            y2="-200"
            stroke="black"
            stroke-width=".5"
            stroke-dasharray="10"/>
      <text x="15" y="-300" text-anchor="middle">30</text>
      <line x1="30"
            x2="1645"
            y1="-300"
            y2="-300"
            stroke="black"
            stroke-width=".5"
            stroke-dasharray="10"/>
      <text x="15" y="-400" text-anchor="middle">40</text>
      <line x1="30"
            x2="1645"
            y1="-400"
            y2="-400"
            stroke="black"
            stroke-width=".5"
            stroke-dasharray="10"/>
      <text x="15" y="-500" text-anchor="middle">50</text>
      <line x1="30"
            x2="1645"
            y1="-500"
            y2="-500"
            stroke="black"
            stroke-width=".5"
            stroke-dasharray="10"/>
      <circle cx="35" cy="-0" r="3.5" fill="red"/>
      <circle cx="35" cy="-0" r="3.5" fill="purple"/>
      <circle cx="35" cy="-0" r="3.5" fill="blue"/>
      <circle cx="35" cy="-0" r="3.5" fill="yellow"/>
      <circle cx="35" cy="-70" r="3.5" fill="green"/>
      <circle cx="35" cy="-0" r="3.5" fill="brown"/>
      <circle cx="35" cy="-10" r="3.5" fill="orange"/>
      <circle cx="35" cy="-0" r="3.5" fill="pink"/>
      <circle cx="70" cy="-0" r="3.5" fill="red"/>
      <circle cx="70" cy="-0" r="3.5" fill="purple"/>
      <circle cx="70" cy="-0" r="3.5" fill="blue"/>
      <circle cx="70" cy="-0" r="3.5" fill="yellow"/>
      <circle cx="70" cy="-0" r="3.5" fill="green"/>
      <circle cx="70" cy="-0" r="3.5" fill="brown"/>
      <circle cx="70" cy="-0" r="3.5" fill="orange"/>
      <circle cx="70" cy="-0" r="3.5" fill="pink"/>
      <circle cx="105" cy="-430" r="3.5" fill="red"/>
      <circle cx="105" cy="-0" r="3.5" fill="purple"/>
      <circle cx="105" cy="-0" r="3.5" fill="blue"/>
      <circle cx="105" cy="-0" r="3.5" fill="yellow"/>
      <circle cx="105" cy="-0" r="3.5" fill="green"/>
      <circle cx="105" cy="-170" r="3.5" fill="brown"/>
      <circle cx="105" cy="-100" r="3.5" fill="orange"/>
      <circle cx="105" cy="-0" r="3.5" fill="pink"/>
      <circle cx="140" cy="-0" r="3.5" fill="red"/>
      <circle cx="140" cy="-0" r="3.5" fill="purple"/>
      <circle cx="140" cy="-0" r="3.5" fill="blue"/>
      <circle cx="140" cy="-0" r="3.5" fill="yellow"/>
      <circle cx="140" cy="-0" r="3.5" fill="green"/>
      <circle cx="140" cy="-0" r="3.5" fill="brown"/>
      <circle cx="140" cy="-0" r="3.5" fill="orange"/>
      <circle cx="140" cy="-0" r="3.5" fill="pink"/>
      <circle cx="175" cy="-0" r="3.5" fill="red"/>
      <circle cx="175" cy="-0" r="3.5" fill="purple"/>
      <circle cx="175" cy="-0" r="3.5" fill="blue"/>
      <circle cx="175" cy="-0" r="3.5" fill="yellow"/>
      <circle cx="175" cy="-0" r="3.5" fill="green"/>
      <circle cx="175" cy="-0" r="3.5" fill="brown"/>
      <circle cx="175" cy="-0" r="3.5" fill="orange"/>
      <circle cx="175" cy="-160" r="3.5" fill="pink"/>
      <circle cx="210" cy="-0" r="3.5" fill="red"/>
      <circle cx="210" cy="-0" r="3.5" fill="purple"/>
      <circle cx="210" cy="-0" r="3.5" fill="blue"/>
      <circle cx="210" cy="-0" r="3.5" fill="yellow"/>
      <circle cx="210" cy="-0" r="3.5" fill="green"/>
      <circle cx="210" cy="-0" r="3.5" fill="brown"/>
      <circle cx="210" cy="-0" r="3.5" fill="orange"/>
      <circle cx="210" cy="-0" r="3.5" fill="pink"/>
      <circle cx="245" cy="-0" r="3.5" fill="red"/>
      <circle cx="245" cy="-0" r="3.5" fill="purple"/>
      <circle cx="245" cy="-0" r="3.5" fill="blue"/>
      <circle cx="245" cy="-0" r="3.5" fill="yellow"/>
      <circle cx="245" cy="-0" r="3.5" fill="green"/>
      <circle cx="245" cy="-0" r="3.5" fill="brown"/>
      <circle cx="245" cy="-10" r="3.5" fill="orange"/>
      <circle cx="245" cy="-0" r="3.5" fill="pink"/>
      <circle cx="280" cy="-30" r="3.5" fill="red"/>
      <circle cx="280" cy="-0" r="3.5" fill="purple"/>
      <circle cx="280" cy="-0" r="3.5" fill="blue"/>
      <circle cx="280" cy="-0" r="3.5" fill="yellow"/>
      <circle cx="280" cy="-0" r="3.5" fill="green"/>
      <circle cx="280" cy="-80" r="3.5" fill="brown"/>
      <circle cx="280" cy="-0" r="3.5" fill="orange"/>
      <circle cx="280" cy="-0" r="3.5" fill="pink"/>
      <circle cx="315" cy="-0" r="3.5" fill="red"/>
      <circle cx="315" cy="-0" r="3.5" fill="purple"/>
      <circle cx="315" cy="-0" r="3.5" fill="blue"/>
      <circle cx="315" cy="-0" r="3.5" fill="yellow"/>
      <circle cx="315" cy="-0" r="3.5" fill="green"/>
      <circle cx="315" cy="-0" r="3.5" fill="brown"/>
      <circle cx="315" cy="-0" r="3.5" fill="orange"/>
      <circle cx="315" cy="-0" r="3.5" fill="pink"/>
      <circle cx="350" cy="-0" r="3.5" fill="red"/>
      <circle cx="350" cy="-0" r="3.5" fill="purple"/>
      <circle cx="350" cy="-230" r="3.5" fill="blue"/>
      <circle cx="350" cy="-0" r="3.5" fill="yellow"/>
      <circle cx="350" cy="-0" r="3.5" fill="green"/>
      <circle cx="350" cy="-0" r="3.5" fill="brown"/>
      <circle cx="350" cy="-0" r="3.5" fill="orange"/>
      <circle cx="350" cy="-0" r="3.5" fill="pink"/>
      <circle cx="385" cy="-0" r="3.5" fill="red"/>
      <circle cx="385" cy="-230" r="3.5" fill="purple"/>
      <circle cx="385" cy="-30" r="3.5" fill="blue"/>
      <circle cx="385" cy="-0" r="3.5" fill="yellow"/>
      <circle cx="385" cy="-10" r="3.5" fill="green"/>
      <circle cx="385" cy="-0" r="3.5" fill="brown"/>
      <circle cx="385" cy="-0" r="3.5" fill="orange"/>
      <circle cx="385" cy="-0" r="3.5" fill="pink"/>
      <circle cx="420" cy="-0" r="3.5" fill="red"/>
      <circle cx="420" cy="-0" r="3.5" fill="purple"/>
      <circle cx="420" cy="-0" r="3.5" fill="blue"/>
      <circle cx="420" cy="-0" r="3.5" fill="yellow"/>
      <circle cx="420" cy="-10" r="3.5" fill="green"/>
      <circle cx="420" cy="-0" r="3.5" fill="brown"/>
      <circle cx="420" cy="-0" r="3.5" fill="orange"/>
      <circle cx="420" cy="-0" r="3.5" fill="pink"/>
      <circle cx="455" cy="-0" r="3.5" fill="red"/>
      <circle cx="455" cy="-0" r="3.5" fill="purple"/>
      <circle cx="455" cy="-0" r="3.5" fill="blue"/>
      <circle cx="455" cy="-10" r="3.5" fill="yellow"/>
      <circle cx="455" cy="-390" r="3.5" fill="green"/>
      <circle cx="455" cy="-0" r="3.5" fill="brown"/>
      <circle cx="455" cy="-40" r="3.5" fill="orange"/>
      <circle cx="455" cy="-0" r="3.5" fill="pink"/>
      <circle cx="490" cy="-10" r="3.5" fill="red"/>
      <circle cx="490" cy="-0" r="3.5" fill="purple"/>
      <circle cx="490" cy="-0" r="3.5" fill="blue"/>
      <circle cx="490" cy="-0" r="3.5" fill="yellow"/>
      <circle cx="490" cy="-0" r="3.5" fill="green"/>
      <circle cx="490" cy="-0" r="3.5" fill="brown"/>
      <circle cx="490" cy="-0" r="3.5" fill="orange"/>
      <circle cx="490" cy="-0" r="3.5" fill="pink"/>
      <circle cx="525" cy="-0" r="3.5" fill="red"/>
      <circle cx="525" cy="-0" r="3.5" fill="purple"/>
      <circle cx="525" cy="-0" r="3.5" fill="blue"/>
      <circle cx="525" cy="-0" r="3.5" fill="yellow"/>
      <circle cx="525" cy="-0" r="3.5" fill="green"/>
      <circle cx="525" cy="-0" r="3.5" fill="brown"/>
      <circle cx="525" cy="-0" r="3.5" fill="orange"/>
      <circle cx="525" cy="-0" r="3.5" fill="pink"/>
      <circle cx="560" cy="-0" r="3.5" fill="red"/>
      <circle cx="560" cy="-10" r="3.5" fill="purple"/>
      <circle cx="560" cy="-0" r="3.5" fill="blue"/>
      <circle cx="560" cy="-0" r="3.5" fill="yellow"/>
      <circle cx="560" cy="-0" r="3.5" fill="green"/>
      <circle cx="560" cy="-0" r="3.5" fill="brown"/>
      <circle cx="560" cy="-0" r="3.5" fill="orange"/>
      <circle cx="560" cy="-0" r="3.5" fill="pink"/>
      <circle cx="595" cy="-0" r="3.5" fill="red"/>
      <circle cx="595" cy="-0" r="3.5" fill="purple"/>
      <circle cx="595" cy="-0" r="3.5" fill="blue"/>
      <circle cx="595" cy="-10" r="3.5" fill="yellow"/>
      <circle cx="595" cy="-0" r="3.5" fill="green"/>
      <circle cx="595" cy="-0" r="3.5" fill="brown"/>
      <circle cx="595" cy="-0" r="3.5" fill="orange"/>
      <circle cx="595" cy="-80" r="3.5" fill="pink"/>
      <circle cx="630" cy="-0" r="3.5" fill="red"/>
      <circle cx="630" cy="-0" r="3.5" fill="purple"/>
      <circle cx="630" cy="-0" r="3.5" fill="blue"/>
      <circle cx="630" cy="-0" r="3.5" fill="yellow"/>
      <circle cx="630" cy="-0" r="3.5" fill="green"/>
      <circle cx="630" cy="-0" r="3.5" fill="brown"/>
      <circle cx="630" cy="-0" r="3.5" fill="orange"/>
      <circle cx="630" cy="-0" r="3.5" fill="pink"/>
      <circle cx="665" cy="-0" r="3.5" fill="red"/>
      <circle cx="665" cy="-0" r="3.5" fill="purple"/>
      <circle cx="665" cy="-0" r="3.5" fill="blue"/>
      <circle cx="665" cy="-0" r="3.5" fill="yellow"/>
      <circle cx="665" cy="-0" r="3.5" fill="green"/>
      <circle cx="665" cy="-0" r="3.5" fill="brown"/>
      <circle cx="665" cy="-0" r="3.5" fill="orange"/>
      <circle cx="665" cy="-0" r="3.5" fill="pink"/>
      <circle cx="700" cy="-40" r="3.5" fill="red"/>
      <circle cx="700" cy="-0" r="3.5" fill="purple"/>
      <circle cx="700" cy="-0" r="3.5" fill="blue"/>
      <circle cx="700" cy="-0" r="3.5" fill="yellow"/>
      <circle cx="700" cy="-0" r="3.5" fill="green"/>
      <circle cx="700" cy="-0" r="3.5" fill="brown"/>
      <circle cx="700" cy="-0" r="3.5" fill="orange"/>
      <circle cx="700" cy="-0" r="3.5" fill="pink"/>
      <circle cx="735" cy="-0" r="3.5" fill="red"/>
      <circle cx="735" cy="-0" r="3.5" fill="purple"/>
      <circle cx="735" cy="-0" r="3.5" fill="blue"/>
      <circle cx="735" cy="-0" r="3.5" fill="yellow"/>
      <circle cx="735" cy="-0" r="3.5" fill="green"/>
      <circle cx="735" cy="-0" r="3.5" fill="brown"/>
      <circle cx="735" cy="-0" r="3.5" fill="orange"/>
      <circle cx="735" cy="-0" r="3.5" fill="pink"/>
      <circle cx="770" cy="-0" r="3.5" fill="red"/>
      <circle cx="770" cy="-0" r="3.5" fill="purple"/>
      <circle cx="770" cy="-0" r="3.5" fill="blue"/>
      <circle cx="770" cy="-0" r="3.5" fill="yellow"/>
      <circle cx="770" cy="-0" r="3.5" fill="green"/>
      <circle cx="770" cy="-0" r="3.5" fill="brown"/>
      <circle cx="770" cy="-0" r="3.5" fill="orange"/>
      <circle cx="770" cy="-0" r="3.5" fill="pink"/>
      <circle cx="805" cy="-30" r="3.5" fill="red"/>
      <circle cx="805" cy="-80" r="3.5" fill="purple"/>
      <circle cx="805" cy="-10" r="3.5" fill="blue"/>
      <circle cx="805" cy="-0" r="3.5" fill="yellow"/>
      <circle cx="805" cy="-70" r="3.5" fill="green"/>
      <circle cx="805" cy="-0" r="3.5" fill="brown"/>
      <circle cx="805" cy="-110" r="3.5" fill="orange"/>
      <circle cx="805" cy="-100" r="3.5" fill="pink"/>
      <circle cx="840" cy="-0" r="3.5" fill="red"/>
      <circle cx="840" cy="-0" r="3.5" fill="purple"/>
      <circle cx="840" cy="-0" r="3.5" fill="blue"/>
      <circle cx="840" cy="-0" r="3.5" fill="yellow"/>
      <circle cx="840" cy="-0" r="3.5" fill="green"/>
      <circle cx="840" cy="-0" r="3.5" fill="brown"/>
      <circle cx="840" cy="-0" r="3.5" fill="orange"/>
      <circle cx="840" cy="-0" r="3.5" fill="pink"/>
      <circle cx="875" cy="-0" r="3.5" fill="red"/>
      <circle cx="875" cy="-0" r="3.5" fill="purple"/>
      <circle cx="875" cy="-0" r="3.5" fill="blue"/>
      <circle cx="875" cy="-0" r="3.5" fill="yellow"/>
      <circle cx="875" cy="-0" r="3.5" fill="green"/>
      <circle cx="875" cy="-0" r="3.5" fill="brown"/>
      <circle cx="875" cy="-0" r="3.5" fill="orange"/>
      <circle cx="875" cy="-0" r="3.5" fill="pink"/>
      <circle cx="910" cy="-0" r="3.5" fill="red"/>
      <circle cx="910" cy="-0" r="3.5" fill="purple"/>
      <circle cx="910" cy="-0" r="3.5" fill="blue"/>
      <circle cx="910" cy="-0" r="3.5" fill="yellow"/>
      <circle cx="910" cy="-30" r="3.5" fill="green"/>
      <circle cx="910" cy="-0" r="3.5" fill="brown"/>
      <circle cx="910" cy="-10" r="3.5" fill="orange"/>
      <circle cx="910" cy="-20" r="3.5" fill="pink"/>
      <circle cx="945" cy="-0" r="3.5" fill="red"/>
      <circle cx="945" cy="-0" r="3.5" fill="purple"/>
      <circle cx="945" cy="-40" r="3.5" fill="blue"/>
      <circle cx="945" cy="-0" r="3.5" fill="yellow"/>
      <circle cx="945" cy="-0" r="3.5" fill="green"/>
      <circle cx="945" cy="-0" r="3.5" fill="brown"/>
      <circle cx="945" cy="-0" r="3.5" fill="orange"/>
      <circle cx="945" cy="-0" r="3.5" fill="pink"/>
      <circle cx="980" cy="-0" r="3.5" fill="red"/>
      <circle cx="980" cy="-0" r="3.5" fill="purple"/>
      <circle cx="980" cy="-0" r="3.5" fill="blue"/>
      <circle cx="980" cy="-10" r="3.5" fill="yellow"/>
      <circle cx="980" cy="-30" r="3.5" fill="green"/>
      <circle cx="980" cy="-0" r="3.5" fill="brown"/>
      <circle cx="980" cy="-0" r="3.5" fill="orange"/>
      <circle cx="980" cy="-0" r="3.5" fill="pink"/>
      <circle cx="1015" cy="-0" r="3.5" fill="red"/>
      <circle cx="1015" cy="-0" r="3.5" fill="purple"/>
      <circle cx="1015" cy="-0" r="3.5" fill="blue"/>
      <circle cx="1015" cy="-0" r="3.5" fill="yellow"/>
      <circle cx="1015" cy="-10" r="3.5" fill="green"/>
      <circle cx="1015" cy="-0" r="3.5" fill="brown"/>
      <circle cx="1015" cy="-0" r="3.5" fill="orange"/>
      <circle cx="1015" cy="-0" r="3.5" fill="pink"/>
      <circle cx="1050" cy="-0" r="3.5" fill="red"/>
      <circle cx="1050" cy="-0" r="3.5" fill="purple"/>
      <circle cx="1050" cy="-0" r="3.5" fill="blue"/>
      <circle cx="1050" cy="-0" r="3.5" fill="yellow"/>
      <circle cx="1050" cy="-0" r="3.5" fill="green"/>
      <circle cx="1050" cy="-0" r="3.5" fill="brown"/>
      <circle cx="1050" cy="-10" r="3.5" fill="orange"/>
      <circle cx="1050" cy="-0" r="3.5" fill="pink"/>
      <circle cx="1085" cy="-0" r="3.5" fill="red"/>
      <circle cx="1085" cy="-0" r="3.5" fill="purple"/>
      <circle cx="1085" cy="-0" r="3.5" fill="blue"/>
      <circle cx="1085" cy="-0" r="3.5" fill="yellow"/>
      <circle cx="1085" cy="-0" r="3.5" fill="green"/>
      <circle cx="1085" cy="-0" r="3.5" fill="brown"/>
      <circle cx="1085" cy="-0" r="3.5" fill="orange"/>
      <circle cx="1085" cy="-0" r="3.5" fill="pink"/>
      <circle cx="1120" cy="-0" r="3.5" fill="red"/>
      <circle cx="1120" cy="-0" r="3.5" fill="purple"/>
      <circle cx="1120" cy="-0" r="3.5" fill="blue"/>
      <circle cx="1120" cy="-0" r="3.5" fill="yellow"/>
      <circle cx="1120" cy="-0" r="3.5" fill="green"/>
      <circle cx="1120" cy="-0" r="3.5" fill="brown"/>
      <circle cx="1120" cy="-90" r="3.5" fill="orange"/>
      <circle cx="1120" cy="-0" r="3.5" fill="pink"/>
      <circle cx="1155" cy="-0" r="3.5" fill="red"/>
      <circle cx="1155" cy="-0" r="3.5" fill="purple"/>
      <circle cx="1155" cy="-0" r="3.5" fill="blue"/>
      <circle cx="1155" cy="-0" r="3.5" fill="yellow"/>
      <circle cx="1155" cy="-0" r="3.5" fill="green"/>
      <circle cx="1155" cy="-0" r="3.5" fill="brown"/>
      <circle cx="1155" cy="-0" r="3.5" fill="orange"/>
      <circle cx="1155" cy="-0" r="3.5" fill="pink"/>
      <circle cx="1190" cy="-0" r="3.5" fill="red"/>
      <circle cx="1190" cy="-0" r="3.5" fill="purple"/>
      <circle cx="1190" cy="-0" r="3.5" fill="blue"/>
      <circle cx="1190" cy="-0" r="3.5" fill="yellow"/>
      <circle cx="1190" cy="-0" r="3.5" fill="green"/>
      <circle cx="1190" cy="-0" r="3.5" fill="brown"/>
      <circle cx="1190" cy="-0" r="3.5" fill="orange"/>
      <circle cx="1190" cy="-0" r="3.5" fill="pink"/>
      <circle cx="1225" cy="-0" r="3.5" fill="red"/>
      <circle cx="1225" cy="-0" r="3.5" fill="purple"/>
      <circle cx="1225" cy="-0" r="3.5" fill="blue"/>
      <circle cx="1225" cy="-0" r="3.5" fill="yellow"/>
      <circle cx="1225" cy="-0" r="3.5" fill="green"/>
      <circle cx="1225" cy="-0" r="3.5" fill="brown"/>
      <circle cx="1225" cy="-10" r="3.5" fill="orange"/>
      <circle cx="1225" cy="-0" r="3.5" fill="pink"/>
      <circle cx="1260" cy="-0" r="3.5" fill="red"/>
      <circle cx="1260" cy="-0" r="3.5" fill="purple"/>
      <circle cx="1260" cy="-0" r="3.5" fill="blue"/>
      <circle cx="1260" cy="-10" r="3.5" fill="yellow"/>
      <circle cx="1260" cy="-140" r="3.5" fill="green"/>
      <circle cx="1260" cy="-0" r="3.5" fill="brown"/>
      <circle cx="1260" cy="-0" r="3.5" fill="orange"/>
      <circle cx="1260" cy="-0" r="3.5" fill="pink"/>
      <circle cx="1295" cy="-0" r="3.5" fill="red"/>
      <circle cx="1295" cy="-20" r="3.5" fill="purple"/>
      <circle cx="1295" cy="-0" r="3.5" fill="blue"/>
      <circle cx="1295" cy="-0" r="3.5" fill="yellow"/>
      <circle cx="1295" cy="-0" r="3.5" fill="green"/>
      <circle cx="1295" cy="-0" r="3.5" fill="brown"/>
      <circle cx="1295" cy="-20" r="3.5" fill="orange"/>
      <circle cx="1295" cy="-0" r="3.5" fill="pink"/>
      <circle cx="1330" cy="-0" r="3.5" fill="red"/>
      <circle cx="1330" cy="-0" r="3.5" fill="purple"/>
      <circle cx="1330" cy="-0" r="3.5" fill="blue"/>
      <circle cx="1330" cy="-10" r="3.5" fill="yellow"/>
      <circle cx="1330" cy="-0" r="3.5" fill="green"/>
      <circle cx="1330" cy="-0" r="3.5" fill="brown"/>
      <circle cx="1330" cy="-0" r="3.5" fill="orange"/>
      <circle cx="1330" cy="-0" r="3.5" fill="pink"/>
      <circle cx="1365" cy="-0" r="3.5" fill="red"/>
      <circle cx="1365" cy="-0" r="3.5" fill="purple"/>
      <circle cx="1365" cy="-0" r="3.5" fill="blue"/>
      <circle cx="1365" cy="-20" r="3.5" fill="yellow"/>
      <circle cx="1365" cy="-0" r="3.5" fill="green"/>
      <circle cx="1365" cy="-0" r="3.5" fill="brown"/>
      <circle cx="1365" cy="-10" r="3.5" fill="orange"/>
      <circle cx="1365" cy="-0" r="3.5" fill="pink"/>
      <circle cx="1400" cy="-0" r="3.5" fill="red"/>
      <circle cx="1400" cy="-0" r="3.5" fill="purple"/>
      <circle cx="1400" cy="-0" r="3.5" fill="blue"/>
      <circle cx="1400" cy="-0" r="3.5" fill="yellow"/>
      <circle cx="1400" cy="-0" r="3.5" fill="green"/>
      <circle cx="1400" cy="-0" r="3.5" fill="brown"/>
      <circle cx="1400" cy="-10" r="3.5" fill="orange"/>
      <circle cx="1400" cy="-0" r="3.5" fill="pink"/>
      <circle cx="1435" cy="-0" r="3.5" fill="red"/>
      <circle cx="1435" cy="-0" r="3.5" fill="purple"/>
      <circle cx="1435" cy="-0" r="3.5" fill="blue"/>
      <circle cx="1435" cy="-0" r="3.5" fill="yellow"/>
      <circle cx="1435" cy="-0" r="3.5" fill="green"/>
      <circle cx="1435" cy="-0" r="3.5" fill="brown"/>
      <circle cx="1435" cy="-10" r="3.5" fill="orange"/>
      <circle cx="1435" cy="-20" r="3.5" fill="pink"/>
      <circle cx="1470" cy="-0" r="3.5" fill="red"/>
      <circle cx="1470" cy="-0" r="3.5" fill="purple"/>
      <circle cx="1470" cy="-0" r="3.5" fill="blue"/>
      <circle cx="1470" cy="-0" r="3.5" fill="yellow"/>
      <circle cx="1470" cy="-0" r="3.5" fill="green"/>
      <circle cx="1470" cy="-0" r="3.5" fill="brown"/>
      <circle cx="1470" cy="-0" r="3.5" fill="orange"/>
      <circle cx="1470" cy="-0" r="3.5" fill="pink"/>
      <circle cx="1505" cy="-0" r="3.5" fill="red"/>
      <circle cx="1505" cy="-0" r="3.5" fill="purple"/>
      <circle cx="1505" cy="-0" r="3.5" fill="blue"/>
      <circle cx="1505" cy="-0" r="3.5" fill="yellow"/>
      <circle cx="1505" cy="-0" r="3.5" fill="green"/>
      <circle cx="1505" cy="-0" r="3.5" fill="brown"/>
      <circle cx="1505" cy="-10" r="3.5" fill="orange"/>
      <circle cx="1505" cy="-0" r="3.5" fill="pink"/>
      <circle cx="1540" cy="-0" r="3.5" fill="red"/>
      <circle cx="1540" cy="-0" r="3.5" fill="purple"/>
      <circle cx="1540" cy="-0" r="3.5" fill="blue"/>
      <circle cx="1540" cy="-0" r="3.5" fill="yellow"/>
      <circle cx="1540" cy="-0" r="3.5" fill="green"/>
      <circle cx="1540" cy="-0" r="3.5" fill="brown"/>
      <circle cx="1540" cy="-10" r="3.5" fill="orange"/>
      <circle cx="1540" cy="-0" r="3.5" fill="pink"/>
      <circle cx="1575" cy="-10" r="3.5" fill="red"/>
      <circle cx="1575" cy="-0" r="3.5" fill="purple"/>
      <circle cx="1575" cy="-0" r="3.5" fill="blue"/>
      <circle cx="1575" cy="-30" r="3.5" fill="yellow"/>
      <circle cx="1575" cy="-10" r="3.5" fill="green"/>
      <circle cx="1575" cy="-30" r="3.5" fill="brown"/>
      <circle cx="1575" cy="-30" r="3.5" fill="orange"/>
      <circle cx="1575" cy="-0" r="3.5" fill="pink"/>
      <circle cx="1610" cy="-0" r="3.5" fill="red"/>
      <circle cx="1610" cy="-0" r="3.5" fill="purple"/>
      <circle cx="1610" cy="-0" r="3.5" fill="blue"/>
      <circle cx="1610" cy="-0" r="3.5" fill="yellow"/>
      <circle cx="1610" cy="-0" r="3.5" fill="green"/>
      <circle cx="1610" cy="-0" r="3.5" fill="brown"/>
      <circle cx="1610" cy="-120" r="3.5" fill="orange"/>
      <circle cx="1610" cy="-0" r="3.5" fill="pink"/>
      <line x1=""
            y1="-"
            x2="35"
            y2="-0"
            stroke="red"
            stroke-width="3"/>
      <line x1=""
            y1="-"
            x2="70"
            y2="-0"
            stroke="red"
            stroke-width="3"/>
      <line x1=""
            y1="-"
            x2="105"
            y2="-430"
            stroke="red"
            stroke-width="3"/>
      <line x1=""
            y1="-"
            x2="140"
            y2="-0"
            stroke="red"
            stroke-width="3"/>
      <line x1=""
            y1="-"
            x2="175"
            y2="-0"
            stroke="red"
            stroke-width="3"/>
      <line x1=""
            y1="-"
            x2="210"
            y2="-0"
            stroke="red"
            stroke-width="3"/>
      <line x1=""
            y1="-"
            x2="245"
            y2="-0"
            stroke="red"
            stroke-width="3"/>
      <line x1=""
            y1="-"
            x2="280"
            y2="-30"
            stroke="red"
            stroke-width="3"/>
      <line x1=""
            y1="-"
            x2="315"
            y2="-0"
            stroke="red"
            stroke-width="3"/>
      <line x1=""
            y1="-"
            x2="350"
            y2="-0"
            stroke="red"
            stroke-width="3"/>
      <line x1=""
            y1="-"
            x2="385"
            y2="-0"
            stroke="red"
            stroke-width="3"/>
      <line x1=""
            y1="-"
            x2="420"
            y2="-0"
            stroke="red"
            stroke-width="3"/>
      <line x1=""
            y1="-"
            x2="455"
            y2="-0"
            stroke="red"
            stroke-width="3"/>
      <line x1=""
            y1="-"
            x2="490"
            y2="-10"
            stroke="red"
            stroke-width="3"/>
      <line x1=""
            y1="-"
            x2="525"
            y2="-0"
            stroke="red"
            stroke-width="3"/>
      <line x1=""
            y1="-"
            x2="560"
            y2="-0"
            stroke="red"
            stroke-width="3"/>
      <line x1=""
            y1="-"
            x2="595"
            y2="-0"
            stroke="red"
            stroke-width="3"/>
      <line x1=""
            y1="-"
            x2="630"
            y2="-0"
            stroke="red"
            stroke-width="3"/>
      <line x1=""
            y1="-"
            x2="665"
            y2="-0"
            stroke="red"
            stroke-width="3"/>
      <line x1=""
            y1="-"
            x2="700"
            y2="-40"
            stroke="red"
            stroke-width="3"/>
      <line x1=""
            y1="-"
            x2="735"
            y2="-0"
            stroke="red"
            stroke-width="3"/>
      <line x1=""
            y1="-"
            x2="770"
            y2="-0"
            stroke="red"
            stroke-width="3"/>
      <line x1=""
            y1="-"
            x2="805"
            y2="-30"
            stroke="red"
            stroke-width="3"/>
      <line x1=""
            y1="-"
            x2="840"
            y2="-0"
            stroke="red"
            stroke-width="3"/>
      <line x1=""
            y1="-"
            x2="875"
            y2="-0"
            stroke="red"
            stroke-width="3"/>
      <line x1=""
            y1="-"
            x2="910"
            y2="-0"
            stroke="red"
            stroke-width="3"/>
      <line x1=""
            y1="-"
            x2="945"
            y2="-0"
            stroke="red"
            stroke-width="3"/>
      <line x1=""
            y1="-"
            x2="980"
            y2="-0"
            stroke="red"
            stroke-width="3"/>
      <line x1=""
            y1="-"
            x2="1015"
            y2="-0"
            stroke="red"
            stroke-width="3"/>
      <line x1=""
            y1="-"
            x2="1050"
            y2="-0"
            stroke="red"
            stroke-width="3"/>
      <line x1=""
            y1="-"
            x2="1085"
            y2="-0"
            stroke="red"
            stroke-width="3"/>
      <line x1=""
            y1="-"
            x2="1120"
            y2="-0"
            stroke="red"
            stroke-width="3"/>
      <line x1=""
            y1="-"
            x2="1155"
            y2="-0"
            stroke="red"
            stroke-width="3"/>
      <line x1=""
            y1="-"
            x2="1190"
            y2="-0"
            stroke="red"
            stroke-width="3"/>
      <line x1=""
            y1="-"
            x2="1225"
            y2="-0"
            stroke="red"
            stroke-width="3"/>
      <line x1=""
            y1="-"
            x2="1260"
            y2="-0"
            stroke="red"
            stroke-width="3"/>
      <line x1=""
            y1="-"
            x2="1295"
            y2="-0"
            stroke="red"
            stroke-width="3"/>
      <line x1=""
            y1="-"
            x2="1330"
            y2="-0"
            stroke="red"
            stroke-width="3"/>
      <line x1=""
            y1="-"
            x2="1365"
            y2="-0"
            stroke="red"
            stroke-width="3"/>
      <line x1=""
            y1="-"
            x2="1400"
            y2="-0"
            stroke="red"
            stroke-width="3"/>
      <line x1=""
            y1="-"
            x2="1435"
            y2="-0"
            stroke="red"
            stroke-width="3"/>
      <line x1=""
            y1="-"
            x2="1470"
            y2="-0"
            stroke="red"
            stroke-width="3"/>
      <line x1=""
            y1="-"
            x2="1505"
            y2="-0"
            stroke="red"
            stroke-width="3"/>
      <line x1=""
            y1="-"
            x2="1540"
            y2="-0"
            stroke="red"
            stroke-width="3"/>
      <line x1=""
            y1="-"
            x2="1575"
            y2="-10"
            stroke="red"
            stroke-width="3"/>
      <line x1=""
            y1="-"
            x2="1610"
            y2="-0"
            stroke="red"
            stroke-width="3"/>
   </g>
</svg>
